<?xml version="1.0" standalone="no"?>
<!DOCTYPE svg PUBLIC "-//W3C//DTD SVG 20010904//EN"
 "http://www.w3.org/TR/2001/REC-SVG-20010904/DTD/svg10.dtd">
<svg version="1.0" xmlns="http://www.w3.org/2000/svg"
 width="700.000000pt" height="700.000000pt" viewBox="0 0 700.000000 700.000000"
 preserveAspectRatio="xMidYMid meet">
<metadata>
Created by potrace 1.11, written by Peter Selinger 2001-2013
</metadata>
<g transform="translate(0.000000,700.000000) scale(0.100000,-0.100000)"
fill="#000000" stroke="none">
<path d="M1619 6985 c-233 -57 -416 -257 -445 -487 -4 -29 -7 -1385 -7 -3013
0 -2316 3 -2973 12 -3020 46 -219 222 -397 446 -450 93 -22 3660 -22 3754 0
231 55 414 251 447 481 10 66 11 5889 2 5982 -26 247 -211 455 -453 507 -90
20 -3675 19 -3756 0z m3631 -3047 l0 -2478 -182 0 c-210 0 -3011 0 -3195 0
l-123 0 0 2478 0 2478 1750 0 1750 0 0 -2478z m-1241 -3083 c19 -11 43 -37 54
-59 39 -74 14 -155 -59 -192 -40 -20 -54 -20 -510 -20 -453 1 -470 2 -504 21
-112 67 -86 238 41 264 17 3 236 6 488 6 437 0 458 -1 490 -20z"/>
<path d="M3290 6108 c-45 -23 -71 -59 -77 -108 -8 -61 13 -108 63 -140 l44
-27 182 1 c192 2 212 6 252 50 59 67 43 172 -32 217 -34 21 -50 22 -217 23
-154 1 -184 -1 -215 -16z"/>
<path d="M4763 6113 c-71 -24 -112 -106 -88 -177 16 -47 31 -63 74 -85 95 -48
207 23 206 130 -1 101 -95 165 -192 132z"/>
<path d="M2120 5231 c-19 -10 -45 -35 -57 -56 -21 -37 -21 -44 -20 -516 2
-465 3 -478 23 -505 11 -15 33 -37 48 -48 27 -21 38 -21 506 -21 545 0 530 -2
570 80 20 41 20 59 20 506 -1 460 -1 464 -23 503 -44 78 -32 76 -562 76 -439
0 -473 -1 -505 -19z"/>
<path d="M3870 5231 c-19 -10 -45 -36 -57 -57 -22 -39 -22 -42 -23 -504 0
-447 1 -467 21 -506 39 -81 27 -79 564 -79 447 0 476 1 509 19 22 12 43 34 55
60 19 39 20 65 19 501 0 376 -3 466 -14 495 -17 40 -43 66 -79 80 -16 6 -211
10 -493 10 -436 0 -470 -1 -502 -19z"/>
<path d="M2120 3481 c-19 -10 -45 -35 -56 -55 -21 -37 -21 -48 -22 -504 0
-518 0 -517 65 -562 l37 -25 475 -1 c465 -1 477 0 514 20 23 13 45 36 57 62
20 39 20 61 20 505 -1 460 -1 464 -23 503 -44 78 -32 76 -562 76 -439 0 -473
-1 -505 -19z"/>
<path d="M3893 3493 c-39 -8 -91 -69 -98 -116 -3 -23 -5 -245 -3 -494 3 -438
4 -452 24 -479 11 -15 33 -37 48 -48 27 -21 38 -21 506 -21 452 0 481 1 514
19 22 12 43 35 55 60 19 39 20 62 18 516 -2 473 -2 475 -24 506 -46 64 -40 63
-553 62 -256 0 -475 -3 -487 -5z"/>
</g>
</svg>
